<?xml version="1.0" encoding="UTF-8" standalone="no"?>
<!DOCTYPE svg PUBLIC "-//W3C//DTD SVG 1.1//EN" "http://www.w3.org/Graphics/SVG/1.1/DTD/svg11.dtd">
<svg width="100%" height="100%" viewBox="0 0 142 142" version="1.1" xmlns="http://www.w3.org/2000/svg" xmlns:xlink="http://www.w3.org/1999/xlink" xml:space="preserve" xmlns:serif="http://www.serif.com/" style="fill-rule:evenodd;clip-rule:evenodd;stroke-linejoin:round;stroke-miterlimit:2;">
    <g id="OBJECTS" transform="matrix(1,0,0,1,0,30)">
        <g transform="matrix(1,0,0,1,-0.201388,-13.8617)">
            <path d="M118.69,25.99C117.02,24.22 115.34,22.53 114.12,21.29C113.03,20.19 113.02,20.18 113.02,20.15C114.54,21.43 116.01,22.77 117.41,24.17C119.84,26.6 122.09,29.22 124.13,32C124.34,32.29 124.55,32.58 124.76,32.88L124.78,32.92C122.75,30.61 120.8,28.23 118.69,25.99" style="fill:rgb(17,115,255);fill-rule:nonzero;"/>
            <path d="M118.69,33.06C113.85,28.51 111.96,24.84 113.51,24.59C116.09,24.17 124.41,33.17 124.78,36.78C124.55,38.51 119.29,33.62 118.69,33.06" style="fill:rgb(17,115,255);fill-rule:nonzero;"/>
            <path d="M118.69,46.92C113.26,43.38 111.36,37.19 114.5,36.42C117.87,35.6 124.5,42.32 124.79,46.85C124.56,50.01 120.2,47.91 118.69,46.92" style="fill:rgb(17,115,255);fill-rule:nonzero;"/>
            <path d="M118.69,65.61C112.97,64.21 111.19,56.46 114.92,54.09C118.45,51.84 124.53,56.4 124.79,61.48C124.58,65.31 121.1,66.2 118.69,65.61" style="fill:rgb(218,226,234);fill-rule:nonzero;"/>
            <path d="M118.69,85.93C113.67,87.06 111.5,81.27 114.12,76.98C117.17,71.98 123.74,73.14 124.68,77.64C124.74,77.94 124.77,78.35 124.78,78.66C124.58,82.72 121.03,85.4 118.69,85.93" style="fill:rgb(17,115,255);fill-rule:nonzero;"/>
            <path d="M130.16,43.82C126.33,36.43 126.33,36.43 126.26,36.02C126.29,36 126.33,35.97 126.36,35.96C128.39,37.47 133.49,48.88 133.84,51.49C133.69,51.3 133.69,51.3 133.35,50.52C132.72,49.08 131.86,47.11 130.16,43.82" style="fill:rgb(255,175,21);fill-rule:nonzero;"/>
            <path d="M130.16,50.66C125.42,43.55 126.06,41.91 126.83,42.12C129.19,42.75 133.62,52.18 133.84,55.28C133.83,55.34 133.82,55.43 133.78,55.48C133.67,55.49 133.39,55.51 130.16,50.66" style="fill:rgb(255,175,21);fill-rule:nonzero;"/>
            <path d="M130.16,61.25C126.21,58.07 125.31,53.05 127.33,52.79C129.83,52.46 133.68,58.91 133.84,61.95C133.7,64.08 130.19,61.28 130.16,61.25" style="fill:rgb(255,175,21);fill-rule:nonzero;"/>
            <path d="M130.16,74.28C126.57,74.53 125.08,69.17 127.33,66.87C129.58,64.56 133.69,67.46 133.84,70.63C133.72,72.95 131.57,74.18 130.16,74.28" style="fill:rgb(218,226,234);fill-rule:nonzero;"/>
            <path d="M83.45,6.58C81.34,6.12 76.33,5.02 75.37,4.73L75.37,4.71C77.2,4.86 79.01,5.08 80.8,5.37C84.35,5.95 87.8,6.81 91.14,7.92C91.73,8.12 92.32,8.32 92.91,8.54L92.95,8.56C92.32,8.49 87.44,7.45 83.45,6.58" style="fill:rgb(218,226,234);fill-rule:nonzero;"/>
            <path d="M83.45,16.65C76.99,15.2 73.31,11.6 76.43,9.77C80.48,7.4 92.43,10.35 92.94,14.85C92.61,17.64 86.94,17.44 83.45,16.65" style="fill:rgb(218,226,234);fill-rule:nonzero;"/>
            <path d="M83.45,36.4C76.23,35.01 72.74,28.31 77.42,24.84C82.25,21.25 92.5,24.55 92.94,31.26C92.62,36 87.2,37.12 83.45,36.4" style="fill:rgb(218,226,234);fill-rule:nonzero;"/>
            <path d="M83.45,63.02C75.43,61.99 72.33,52.07 78.65,47.65C83.95,43.94 92.54,47.27 92.94,55.07C92.62,61.36 87.19,63.51 83.45,63.02" style="fill:rgb(218,226,234);fill-rule:nonzero;"/>
            <path d="M83.45,91.98C75.85,91.74 72.54,82.83 78.01,77.32C83.18,72.1 92.52,74.49 92.95,83.03C92.6,89.76 86.94,92.09 83.45,91.98" style="fill:rgb(218,226,234);fill-rule:nonzero;"/>
            <path d="M102.54,16.7C97.45,13.86 94.29,11.08 95.79,10.74C98.38,10.17 110.15,17.2 110.61,19.59C110.26,20.99 102.62,16.75 102.54,16.7" style="fill:rgb(255,175,21);fill-rule:nonzero;"/>
            <path d="M102.54,30.19C96.56,27.41 93.35,21.88 96.81,20.33C100.94,18.47 110.22,24.56 110.61,29.37C110.33,32.57 105.51,31.57 102.54,30.19" style="fill:rgb(17,115,255);fill-rule:nonzero;"/>
            <path d="M102.54,51.1C95.95,49.18 92.94,40.93 97.79,38.12C102.12,35.61 110.24,40.09 110.6,46.58C110.34,51.24 105.73,52.02 102.54,51.1" style="fill:rgb(255,175,21);fill-rule:nonzero;"/>
            <path d="M102.54,76.8C96.02,76.42 92.95,67.31 97.79,62.67C102.12,58.51 110.25,61.47 110.6,68.97C110.34,74.67 105.73,76.98 102.54,76.8" style="fill:rgb(17,115,255);fill-rule:nonzero;"/>
            <path d="M42.05,11.18C39.74,12.19 37.48,13.31 35.11,14.2L35.11,14.18C36.38,13.41 37.68,12.68 39.01,11.99C42.09,10.39 45.31,9.03 48.65,7.92C49.49,7.64 50.33,7.38 51.19,7.13L51.23,7.12C50.7,7.42 49.54,7.92 42.05,11.18" style="fill:rgb(17,115,255);fill-rule:nonzero;"/>
            <path d="M42.05,20.54C37.62,21.98 33.9,21.63 35.41,18.81C38.01,13.97 50.24,9.61 51.18,13.2C51.21,13.31 51.21,13.45 51.22,13.56C50.89,16.58 45.42,19.44 42.05,20.54" style="fill:rgb(255,175,21);fill-rule:nonzero;"/>
            <path d="M42.05,38.89C36.7,39.74 32.98,36.18 36.36,31.24C40.55,25.11 50.39,24.08 51.18,29.69C51.21,29.88 51.21,30.14 51.22,30.34C50.9,35.28 45.67,38.32 42.05,38.89" style="fill:rgb(17,115,255);fill-rule:nonzero;"/>
            <path d="M42.05,63.64C35.73,63.36 32.31,55.78 37.84,50.38C42.67,45.67 50.83,47.19 51.22,54.69C50.9,61.13 45.66,63.8 42.05,63.64" style="fill:rgb(17,115,255);fill-rule:nonzero;"/>
            <path d="M42.05,90.55C34.77,88.82 32.54,79.67 38.44,75.71C43.4,72.38 50.85,75.74 51.23,83.28C50.9,89.71 45.67,91.4 42.05,90.55" style="fill:rgb(17,115,255);fill-rule:nonzero;"/>
            <path d="M61.85,9.24C56.51,9.65 53,8.95 54.01,7.68C55.64,5.64 71.39,3.3 72.09,6.25C71.73,7.8 65.89,8.93 61.85,9.24" style="fill:rgb(255,175,21);fill-rule:nonzero;"/>
            <path d="M61.85,24.56C55.08,24.67 51.61,20.63 55.33,16.97C59.9,12.5 71.56,12.67 72.08,18.52C71.73,22.58 65.88,24.49 61.85,24.56" style="fill:rgb(17,115,255);fill-rule:nonzero;"/>
            <path d="M61.85,48.3C54.32,47.92 51.12,40.41 56.41,35.54C61.69,30.68 71.62,32.54 72.09,40.14C71.72,46.11 65.88,48.5 61.85,48.3" style="fill:rgb(218,226,234);fill-rule:nonzero;"/>
            <path d="M61.85,77.49C54.01,76.61 51,66.52 57.04,61.38C62.47,56.75 71.65,59.69 72.09,68.27C71.73,75.38 65.88,77.94 61.85,77.49" style="fill:rgb(17,115,255);fill-rule:nonzero;"/>
            <path d="M61.85,104.92C53.94,103.79 50.98,94.89 57.04,90.5C62.47,86.57 71.64,89.58 72.09,97.29C71.73,103.51 65.88,105.49 61.85,104.92" style="fill:rgb(255,175,21);fill-rule:nonzero;"/>
            <path d="M12.21,37.57C10.42,40.5 9.48,42.36 8.58,44.16L8.58,44.15C9.09,43.02 9.63,41.9 10.2,40.8C11.8,37.72 13.63,34.77 15.66,31.99C16.32,31.09 17.01,30.2 17.71,29.33L17.74,29.3C15.91,32.08 13.94,34.74 12.21,37.57" style="fill:rgb(218,226,234);fill-rule:nonzero;"/>
            <path d="M12.21,42.85C9.07,47.05 8.84,47.09 8.63,47.12C8.18,46.68 10.45,41.72 12.21,38.94C15.96,33.02 17.47,33.13 17.49,33.13C17.69,33.17 17.71,33.37 17.74,33.54C17.58,35.05 15.83,38 12.21,42.85" style="fill:rgb(17,115,255);fill-rule:nonzero;"/>
            <path d="M12.21,53.2C11.29,53.94 8.31,56.18 8.58,53.78C9.07,49.33 15.71,40.78 17.49,43.52C17.69,43.82 17.72,44.24 17.74,44.55C17.52,48.02 14.16,51.62 12.21,53.2" style="fill:rgb(255,175,21);fill-rule:nonzero;"/>
            <path d="M12.21,67.15C8.51,67.57 7.06,64.12 10.59,59.86C13.83,55.95 17.35,56.62 17.71,59.99C17.73,60.15 17.73,60.37 17.74,60.54C17.55,64.3 14.78,66.85 12.21,67.15" style="fill:rgb(17,115,255);fill-rule:nonzero;"/>
            <path d="M12.21,82.32C8.54,80.08 6.76,74.44 11.35,73.35C14.19,72.68 17.53,75.07 17.74,79.29C17.54,83.13 14.72,83.85 12.21,82.32" style="fill:rgb(255,175,21);fill-rule:nonzero;"/>
            <path d="M24.92,24.96C20.04,28.9 19.6,28.65 19.46,28.57C18.94,26.67 30.51,16.34 32.36,17.06C32.44,17.09 32.49,17.21 32.51,17.28C32.19,18.98 26.62,23.59 24.92,24.96" style="fill:rgb(17,115,255);fill-rule:nonzero;"/>
            <path d="M24.92,36.42C21.69,38.24 18.81,38.6 19.54,35.76C20.9,30.52 30.11,23.68 32.17,26.38C32.43,26.72 32.47,27.14 32.5,27.49C32.22,31.05 27.81,34.78 24.92,36.42" style="fill:rgb(255,175,21);fill-rule:nonzero;"/>
            <path d="M24.92,54.19C20.47,55.16 17.62,51.91 20.76,46.88C24.34,41.14 31.17,39.57 32.35,44.22C32.44,44.58 32.48,45.09 32.5,45.46C32.23,50.4 27.9,53.53 24.92,54.19" style="fill:rgb(218,226,234);fill-rule:nonzero;"/>
            <path d="M24.92,76.03C19.43,75.02 17.12,67.51 22.55,63.55C26.68,60.54 32.2,62.43 32.5,68.85C32.22,74.71 27.9,76.58 24.92,76.03" style="fill:rgb(218,226,234);fill-rule:nonzero;"/>
            <path d="M24.92,96.55C19.4,93.59 17.09,86.08 22.55,84.62C26.68,83.51 32.2,87.22 32.5,92.96C32.25,97.62 28.44,98.45 24.92,96.55" style="fill:rgb(17,115,255);fill-rule:nonzero;"/>
        </g>
    </g>
</svg>
