<svg xmlns:xlink="http://www.w3.org/1999/xlink" xmlns="http://www.w3.org/2000/svg" width="32" height="28" viewBox="0 0 32 28" fill="none">
<path d="M27.4218 18.2941L27.4314 18.3054L25.9127 20.2152L25.0294 21.3336L24.018 22.614C23.5787 23.1702 23.3287 23.8639 23.3342 24.58L23.3342 24.5947C23.3381 24.9517 23.3896 25.2959 23.4822 25.6215C23.5979 26.0289 23.7779 26.4067 24.0089 26.7434L22.7452 25.6834C22.3682 25.3665 21.98 25.0623 21.5724 24.7878C21.0988 24.4684 20.6721 24.0802 20.3064 23.6364C19.4501 22.598 18.9271 21.2551 18.9102 19.7813C18.901 19.0171 19.0289 18.2845 19.2703 17.606C19.3562 17.3611 19.4577 17.1243 19.5725 16.8963L19.5728 16.8933C19.8576 16.3289 20.2234 15.8153 20.6572 15.3703C21.1483 14.8643 21.6044 14.3246 22.0421 13.7697L22.8069 12.8025L27.4218 18.2941ZM22.8062 12.8024L22.7966 12.7912L24.3152 10.8814L25.1986 9.76295L26.21 8.48326C26.6492 7.92638 26.8993 7.23264 26.8937 6.51734C26.8943 6.51152 26.8933 6.50701 26.8938 6.50191C26.8898 6.14561 26.8383 5.8014 26.7458 5.47508C26.6301 5.067 26.4502 4.68916 26.219 4.35317L27.4828 5.41316C27.8598 5.73013 28.2481 6.03354 28.6556 6.30875C29.1292 6.62745 29.556 7.01566 29.9216 7.45942C30.778 8.49789 31.3009 9.84075 31.3178 11.3146C31.3271 12.0788 31.1991 12.8121 30.9577 13.4906C30.8711 13.7347 30.7704 13.9716 30.6554 14.2003L30.6552 14.2025C30.3704 14.767 30.0046 15.2806 29.5708 15.7263C29.0797 16.2316 28.6236 16.7713 28.186 17.3261L27.4212 18.2933L22.8055 12.8016L22.8062 12.8024Z" fill="url(#paint0_linear_1348_1585)"/>
<path d="M3.22494 8.75086L3.2143 8.74062L4.53218 6.68714L5.29798 5.4852L6.17491 4.10914C6.55569 3.51146 6.73438 2.796 6.65651 2.0842L6.65508 2.06957C6.61509 1.71476 6.52904 1.37752 6.40403 1.06295C6.24777 0.669372 6.03059 0.311642 5.76667 0L7.13107 0.92688C7.53812 1.20414 7.95508 1.4675 8.38831 1.6994C8.89174 1.96935 9.35555 2.31244 9.76413 2.71699C10.721 3.66363 11.377 4.94677 11.5427 6.41135C11.6291 7.1707 11.5759 7.9125 11.4043 8.61186C11.3435 8.86425 11.2665 9.11005 11.1753 9.34854L11.1753 9.35146C10.949 9.94183 10.6369 10.4898 10.2504 10.9762C9.81285 11.5293 9.41364 12.1124 9.03427 12.7086L8.37109 13.7481L3.22494 8.75086ZM8.3718 13.7481L8.38244 13.7584L7.06456 15.8118L6.29876 17.0138L5.42183 18.3891C5.04106 18.9875 4.86237 19.703 4.94023 20.414C4.94024 20.4199 4.94166 20.4243 4.94166 20.4294C4.98166 20.7835 5.06771 21.1207 5.19271 21.436C5.34898 21.8303 5.56616 22.1881 5.83007 22.499L4.46568 21.5721C4.05863 21.2948 3.64167 21.0322 3.20843 20.7996C2.705 20.5304 2.2412 20.1873 1.83262 19.7827C0.875725 18.8361 0.21975 17.5529 0.054058 16.0884C-0.0323549 15.329 0.0208662 14.5865 0.192482 13.8871C0.253924 13.6354 0.330254 13.3896 0.421473 13.1504L0.421472 13.1482C0.647754 12.5579 0.95983 12.0099 1.34637 11.5227C1.78389 10.9704 2.18311 10.3873 2.56247 9.79113L3.22565 8.75159L8.37251 13.7488L8.3718 13.7481Z" fill="url(#paint1_linear_1348_1585)"/>
<path d="M14.7886 16.5448C16.6746 16.8176 18.4212 15.4813 18.6896 13.5602C18.9581 11.6391 17.6467 9.86057 15.7607 9.58779C13.8746 9.31501 12.1281 10.6512 11.8597 12.5724C11.5912 14.4935 12.9025 16.272 14.7886 16.5448Z" fill="url(#paint2_linear_1348_1585)"/>
<defs>
<linearGradient id="paint0_linear_1348_1585" x1="33.9995" y1="14.8518" x2="17.1501" y2="16.5205" gradientUnits="userSpaceOnUse">
<stop stop-color="white"/>
<stop offset="0.686646" stop-color="white"/>
</linearGradient>
<linearGradient id="paint1_linear_1348_1585" x1="-2.97129" y1="12.8401" x2="13.6233" y2="9.47765" gradientUnits="userSpaceOnUse">
<stop stop-color="white"/>
<stop offset="0.686646" stop-color="white"/>
</linearGradient>
<linearGradient id="paint2_linear_1348_1585" x1="9.6481" y1="12.3966" x2="21.8022" y2="13.8631" gradientUnits="userSpaceOnUse">
<stop stop-color="#F8F8F8"/>
<stop offset="0.640625" stop-color="white"/>
</linearGradient>
</defs>
</svg>