<svg xmlns="http://www.w3.org/2000/svg" width="1000" height="1000" viewBox="0 0 1000 1000" version="1.1"><path d="M 177.379 348.192 C 177.725 349.672, 180.021 360.472, 182.479 372.192 C 193.996 427.081, 207.164 473.163, 222.432 512 C 228.692 527.925, 242.417 556.524, 249.066 567.500 C 260.230 585.930, 275.247 602.587, 286.030 608.500 C 290.951 611.199, 292.352 611.492, 300 611.416 C 310.012 611.316, 316.976 609.231, 330.500 602.283 C 350.683 591.915, 371.987 576.122, 389.500 558.546 C 403.078 544.920, 408.802 536.892, 409.697 530.220 C 410.176 526.651, 409.900 526.063, 406.382 523.163 C 404.271 521.423, 402.211 520, 401.803 520 C 399.983 520, 353.571 490.880, 332 476.205 C 275.983 438.094, 227.281 398.023, 190.444 359.734 C 180.239 349.128, 176.909 346.186, 177.379 348.192 M 808.490 359.723 C 761.216 409.376, 693.282 462.005, 616 508.845 C 588.133 525.735, 588.646 525.324, 589.303 530.224 C 590.161 536.623, 595.816 544.662, 608.500 557.518 C 627.310 576.583, 647.075 591.249, 668.500 602.041 C 683.411 609.551, 689.724 611.475, 699.500 611.489 C 706.518 611.499, 708.171 611.132, 712.970 608.500 C 727.205 600.694, 744.643 578.978, 759.142 551 C 782.472 505.983, 802.378 442.557, 819.535 358.570 C 820.876 352.008, 821.854 346.521, 821.710 346.376 C 821.565 346.232, 815.617 352.238, 808.490 359.723" stroke="none" fill="#f9f9f9" fill-rule="evenodd"/><path d="M 452.500 3.089 C 438.903 4.713, 417.866 8.203, 411 9.973 C 409.075 10.469, 404.125 11.621, 400 12.533 C 395.875 13.444, 390.475 14.779, 388 15.498 C 370.483 20.591, 365.317 22.179, 364 22.880 C 363.175 23.319, 359.940 24.478, 356.812 25.456 C 353.683 26.434, 350.895 27.832, 350.615 28.562 C 349.310 31.962, 348.866 60.942, 349.895 75.500 C 351.819 102.700, 358.532 143.747, 362.962 155.399 C 364.281 158.870, 366.694 159.273, 382.704 158.699 C 403.770 157.943, 432.449 153.942, 445.500 149.939 C 447.150 149.432, 451.425 148.325, 455 147.478 C 462.288 145.750, 482.974 139.270, 484.628 138.197 C 485.364 137.718, 485.892 116.250, 486.310 69.750 L 486.920 2 473.210 2.126 C 465.669 2.196, 456.350 2.629, 452.500 3.089 M 512.758 69.750 C 513.119 116.771, 513.610 137.713, 514.362 138.197 C 516.039 139.275, 536.734 145.755, 544 147.478 C 547.575 148.325, 551.850 149.432, 553.500 149.939 C 570.841 155.258, 620.867 160.748, 632.355 158.593 C 635.338 158.034, 635.884 157.439, 636.832 153.728 C 646.319 116.588, 651.468 70.391, 649.540 39.721 L 648.799 27.943 645.650 26.642 C 640.532 24.529, 628.055 20.345, 620 18.042 C 615.875 16.862, 610.250 15.242, 607.500 14.440 C 601.402 12.664, 581.339 8.459, 567 5.954 C 554.339 3.741, 535.712 2.018, 524.369 2.009 L 512.239 2 512.758 69.750 M 306.500 52.666 C 267.871 80.521, 235.757 115.408, 212.299 155 C 206.110 165.446, 205.451 169.834, 207.477 187.091 C 209.535 204.627, 214.622 219.259, 224.830 237 C 231.721 248.976, 242.955 265, 244.460 265 C 249.111 265, 279.094 240.141, 293.788 224.101 C 299.130 218.270, 303.725 213.275, 304 213 C 312.379 204.621, 339.455 166, 339.264 162.701 C 339.225 162.041, 337.761 156.550, 336.011 150.500 C 329.420 127.725, 324.990 107.914, 322.593 90.500 C 319.302 66.598, 319 63.609, 319 54.959 C 319 43.835, 318.798 43.798, 306.500 52.666 M 680 56.057 C 680 61.589, 679.562 69.126, 679.026 72.807 C 678.491 76.488, 677.349 84.675, 676.488 91 C 675.628 97.325, 674.448 104.750, 673.867 107.500 C 671.017 120.986, 666.637 138.762, 663.329 150.273 L 659.658 163.047 661.992 167.273 C 671.414 184.338, 696.478 216.173, 713.345 232.500 C 730.035 248.656, 752.399 265.828, 755.300 264.715 C 759.346 263.162, 783.423 222.409, 785.557 213.500 C 785.952 211.850, 786.609 210.050, 787.015 209.500 C 789.587 206.023, 793.560 178.769, 792.812 169.742 C 792.433 165.177, 791.344 162.470, 787.005 155.312 C 771.049 128.985, 756.680 110.584, 735.553 89.422 C 716.511 70.347, 686.163 46, 681.429 46 C 680.285 46, 680 48.005, 680 56.057 M 476.177 147.541 C 472.149 149.443, 468.430 151, 467.913 151 C 467.396 151, 466.191 151.420, 465.236 151.934 C 461.580 153.900, 442.934 159.046, 430 161.659 C 412.464 165.201, 387.703 165.607, 373.741 162.582 C 368.924 161.538, 364.744 160.922, 364.453 161.214 C 364.161 161.506, 364.878 165.064, 366.046 169.122 C 367.214 173.180, 368.525 177.850, 368.960 179.500 C 370.963 187.091, 375.101 201.151, 375.940 203.214 C 376.451 204.471, 378.072 209.550, 379.542 214.500 C 381.011 219.450, 382.781 224.850, 383.474 226.500 C 384.167 228.150, 387.114 236.250, 390.022 244.500 C 392.931 252.750, 396.083 261.300, 397.027 263.500 C 397.971 265.700, 399.735 270.200, 400.948 273.500 C 402.160 276.800, 403.750 280.850, 404.481 282.500 C 408.186 290.862, 416 309.735, 416 310.323 C 416 310.692, 417.539 314.258, 419.421 318.247 C 421.303 322.236, 425.194 330.675, 428.069 337 C 443.236 370.370, 468.198 420.387, 477.853 436.754 C 481.915 443.639, 484.480 448.754, 483.241 447.500 C 480.923 445.153, 456.842 406.740, 444.058 385 C 440.016 378.125, 434.800 369.350, 432.468 365.500 C 430.136 361.650, 427.027 356.250, 425.559 353.500 C 424.092 350.750, 420.888 344.900, 418.439 340.500 C 415.991 336.100, 412.177 328.995, 409.963 324.710 C 407.576 320.092, 405.502 317.190, 404.867 317.582 C 404.278 317.946, 403.123 319.854, 402.301 321.821 C 395.714 337.588, 373.896 361.436, 359.250 368.881 C 356.913 370.069, 355 371.625, 355 372.339 C 355 373.053, 358.698 376.531, 363.218 380.068 C 367.737 383.606, 373.756 388.372, 376.593 390.660 C 379.430 392.948, 390.920 401.692, 402.126 410.091 C 423.713 426.270, 432.322 433.538, 448.483 449.221 C 460.107 460.502, 463.401 463.089, 471.235 467.087 C 482.481 472.826, 494.269 475.556, 503.653 474.595 C 519.937 472.926, 535.795 464.690, 549 451.042 C 562.271 437.327, 574.423 426.977, 598 409.308 C 616.290 395.602, 636.387 379.996, 642.385 374.841 L 645.480 372.182 642.140 370.341 C 624.537 360.635, 604.772 339.484, 596.732 321.750 C 595.200 318.369, 592 316.508, 592 318.998 C 592 319.548, 589.075 325.224, 585.500 331.613 C 581.925 338.002, 579 343.393, 579 343.594 C 579 344.313, 555.373 385.037, 548.514 396.141 C 547.956 397.044, 545.793 400.644, 543.707 404.141 C 541.621 407.638, 536.137 416.350, 531.520 423.500 C 526.903 430.650, 521.714 438.863, 519.989 441.750 C 518.264 444.637, 516.652 447, 516.406 447 C 515.828 447, 519.107 440.554, 524.801 430.500 C 530.064 421.208, 555.353 371.148, 562.185 356.500 C 570.556 338.550, 574.131 330.679, 579.216 319 C 581.970 312.675, 585.030 305.700, 586.016 303.500 C 587.002 301.300, 590.136 293.650, 592.979 286.500 C 595.822 279.350, 598.731 272.150, 599.444 270.500 C 600.156 268.850, 601.976 264.125, 603.488 260 C 605 255.875, 606.618 251.600, 607.083 250.500 C 609.615 244.518, 624.422 200.285, 626.407 192.773 C 627.173 189.873, 629.474 181.741, 631.519 174.702 C 633.564 167.663, 634.963 161.629, 634.627 161.294 C 634.292 160.958, 630.076 161.538, 625.259 162.582 C 613.752 165.075, 586.392 165.142, 574.500 162.706 C 554.636 158.637, 551.378 157.908, 549.500 157.111 C 548.400 156.645, 543.675 155.042, 539 153.549 C 534.325 152.056, 526.942 149.276, 522.594 147.370 C 518.246 145.465, 514.189 144.097, 513.578 144.332 C 512.810 144.627, 512.372 153.652, 512.158 173.629 C 511.879 199.581, 511.154 226.984, 509.339 280.141 L 508.736 297.782 511.118 298.454 C 512.428 298.823, 514.400 299.527, 515.500 300.017 C 518.332 301.279, 537.222 305.727, 545.520 307.086 C 549.359 307.714, 558.125 308.457, 565 308.736 C 579.016 309.305, 578.702 310.498, 564.250 311.589 C 550.285 312.643, 530.435 309.248, 516.301 303.388 C 512.892 301.975, 509.700 301.067, 509.208 301.372 C 508.716 301.676, 508.009 309.254, 507.637 318.212 C 506.541 344.622, 503.501 399.549, 500.953 438.972 C 499.910 455.108, 499.046 460.699, 498.953 451.917 C 498.927 449.488, 498.491 441.650, 497.984 434.500 C 496.294 410.669, 493.076 353.287, 491.405 317.160 C 490.940 307.107, 490.298 301.668, 489.544 301.378 C 488.910 301.135, 485.942 302.008, 482.946 303.317 C 470.146 308.912, 449.686 312.520, 435.839 311.626 C 420.376 310.627, 419.546 309.323, 434 308.736 C 440.875 308.457, 449.650 307.728, 453.500 307.117 C 461.349 305.870, 480.432 301.344, 483.500 300.001 C 484.600 299.520, 486.512 298.842, 487.750 298.495 C 489.937 297.883, 490 297.499, 490 284.702 C 490 277.463, 489.522 264.330, 488.938 255.520 C 488.354 246.709, 487.567 218.131, 487.188 192.013 C 486.593 150.921, 486.298 144.495, 485 144.303 C 484.175 144.181, 480.204 145.638, 476.177 147.541 M 337.125 174.248 C 327.809 198.861, 300.702 233.312, 277 250.661 C 270.890 255.134, 258.353 262.436, 254.904 263.530 C 253.678 263.920, 251.162 264.870, 249.314 265.642 C 244.659 267.587, 244.309 266.997, 261.933 286.952 C 276.784 303.767, 307.198 333.267, 326.420 349.500 C 329.676 352.250, 334.176 356.104, 336.420 358.065 C 345.959 366.401, 352.259 370.960, 353.343 370.314 C 361.076 365.708, 378.423 349.254, 388.464 337 C 394.688 329.404, 404 316.052, 404 314.723 C 404 314.217, 399.150 304.059, 393.223 292.151 C 382.841 271.293, 376.274 257.496, 372.208 248 C 371.149 245.525, 369.318 241.387, 368.141 238.805 C 366.963 236.223, 366 233.855, 366 233.544 C 366 233.233, 365.132 231.071, 364.071 228.739 C 363.011 226.408, 360.722 220.900, 358.985 216.500 C 357.248 212.100, 355.416 207.600, 354.914 206.500 C 353.859 204.187, 351.396 197.322, 345.615 180.582 C 343.352 174.027, 341.048 168.514, 340.495 168.331 C 339.943 168.147, 338.426 170.810, 337.125 174.248 M 657.014 170.464 C 656.498 171.820, 655.321 175.527, 654.398 178.702 C 653.475 181.878, 652.376 185.156, 651.956 185.988 C 651.535 186.820, 648.845 193.800, 645.977 201.500 C 640.341 216.630, 632.741 235.140, 627.368 246.823 C 625.516 250.851, 624 254.340, 624 254.578 C 624 255.241, 608.789 286.678, 601.270 301.556 L 594.574 314.805 599.931 322.652 C 610.045 337.469, 628.700 357.623, 640.171 366.127 L 646.921 371.131 659.210 360.951 C 678.571 344.913, 705.278 320.498, 720.007 305.372 C 735.853 289.099, 753.201 269.103, 752.721 267.664 C 752.537 267.110, 749.928 265.721, 746.924 264.578 C 728.523 257.577, 709.379 242.492, 691.002 220.514 C 675.201 201.617, 665.521 185.592, 660.339 169.750 C 659.530 167.275, 658.110 167.580, 657.014 170.464 M 192.412 199.765 C 191.814 200.169, 191.065 201.400, 190.749 202.500 C 190.432 203.600, 189.015 208.379, 187.600 213.119 C 186.185 217.859, 184.306 225.059, 183.424 229.119 C 182.543 233.179, 181.186 239.425, 180.409 243 C 177.776 255.119, 176.464 279.784, 177.808 291.876 C 179.148 303.923, 179.856 306.618, 184.094 315.796 C 186.797 321.650, 195.213 334.977, 198.195 338.125 C 198.913 338.883, 201.273 341.707, 203.440 344.401 C 205.607 347.096, 211.457 353.362, 216.440 358.327 C 221.423 363.292, 224.825 366.968, 224 366.497 C 222.512 365.647, 215.102 358.826, 208.129 351.889 C 204.222 348.002, 198.247 346.194, 188.500 345.948 C 181.788 345.779, 181.256 345.877, 182.971 346.961 C 183.780 347.473, 184.077 348.253, 183.631 348.696 C 183.186 349.138, 181.832 348.262, 180.623 346.750 C 179.414 345.238, 177.722 344, 176.864 344 C 175.529 344, 175.431 344.818, 176.187 349.642 C 176.674 352.745, 176.866 355.782, 176.615 356.392 C 176.364 357.001, 176.122 356.311, 176.079 354.857 C 176.036 353.403, 175.391 351.980, 174.647 351.695 C 173.369 351.204, 170 354.159, 170 355.771 C 170 356.182, 169.156 357.046, 168.124 357.691 C 165.751 359.172, 164.643 367.448, 165.841 374.750 C 166.314 377.637, 166.319 380, 165.851 380 C 165.383 380, 165 378.671, 165 377.047 C 165 375.423, 164.583 373.060, 164.074 371.797 C 163.565 370.534, 162.578 365.337, 161.880 360.250 C 161.183 355.163, 160.265 351, 159.841 351 C 159.417 351, 158.543 351.986, 157.898 353.191 C 155.086 358.445, 159.827 434.267, 164.951 466 C 169.874 496.482, 175.436 522.387, 181.699 544 C 193.751 585.591, 207.922 618.468, 224.802 644 C 234.256 658.300, 251.846 676.375, 263 683.251 C 279.241 693.263, 300.043 697.568, 313 693.600 C 335.874 686.595, 377.162 656.823, 411.567 622.524 C 437.760 596.412, 455.739 571.734, 463.310 551.500 C 466.748 542.312, 469.312 529.479, 468.537 525.344 C 467.651 520.625, 462.847 511.912, 457.455 505.245 C 445.465 490.421, 409.164 456.026, 379.624 431.500 C 376.974 429.300, 374.287 427.021, 373.653 426.436 C 371.533 424.479, 335.610 394.514, 327 387.520 C 322.325 383.722, 318.275 380.354, 318 380.035 C 317.306 379.230, 294.776 360.239, 289.708 356.187 C 284.813 352.273, 256.921 327.490, 245.505 316.910 C 231.660 304.079, 225.307 297.132, 219.235 288.182 C 201.354 261.827, 192.166 233.963, 193.164 209.119 C 193.388 203.554, 193.555 199.007, 193.535 199.015 C 193.516 199.024, 193.011 199.361, 192.412 199.765 M 805.843 210.248 C 806.646 234.207, 797.962 261.077, 781.201 286.500 C 774.020 297.392, 766.785 304.964, 742.844 326.642 C 722.517 345.047, 712.423 353.808, 690.583 372 C 686.291 375.575, 682.267 378.961, 681.640 379.525 C 681.013 380.089, 671.050 388.413, 659.500 398.024 C 620.853 430.183, 600.316 447.692, 584.500 461.968 C 570.922 474.224, 542.792 503.354, 538.165 509.950 C 535.291 514.047, 532.248 519.780, 531.402 522.689 C 530.006 527.490, 530.016 528.743, 531.503 536.240 C 532.405 540.783, 534.002 546.857, 535.053 549.739 C 539.976 563.240, 551.205 581.809, 562.466 595.073 C 564.135 597.038, 567.516 601.088, 569.979 604.073 C 579.939 616.139, 599.318 634.540, 624.014 655.379 C 626.801 657.731, 636.071 664.724, 643 669.702 C 653.216 677.042, 672.018 688.081, 679.500 691.133 C 692.710 696.521, 704.536 696.297, 721.500 690.334 C 740.994 683.483, 761.816 664.211, 778.324 637.740 C 784.166 628.372, 799 599.513, 799 597.515 C 799 597.123, 799.675 595.272, 800.500 593.401 C 803.883 585.731, 804.938 582.912, 809.262 570 C 829.569 509.363, 840.660 442.312, 841.269 376.500 C 841.469 354.842, 841.300 351.500, 840 351.500 C 839.021 351.500, 838.282 352.889, 837.874 355.500 C 834.241 378.706, 833.323 381.720, 833.409 370.156 C 833.481 360.596, 833.317 359.675, 831.243 357.996 C 830.010 356.997, 829 355.895, 829 355.548 C 829 355.201, 828.166 354.022, 827.148 352.928 C 825.117 350.748, 823.619 351.621, 822.736 355.500 C 822.486 356.600, 822.475 355.250, 822.713 352.500 C 822.950 349.750, 823.367 346.712, 823.640 345.750 C 824.419 342.995, 821.232 343.620, 818.537 346.750 C 817.235 348.262, 815.807 349.138, 815.364 348.696 C 814.921 348.253, 815.220 347.481, 816.029 346.980 C 816.962 346.401, 814.576 346.205, 809.500 346.444 C 797.105 347.026, 793.492 348.069, 790.801 351.839 C 789.413 353.785, 782 360.486, 782 359.796 C 782 359.569, 784.745 356.485, 788.101 352.942 C 791.456 349.399, 795.394 344.925, 796.851 343 C 798.308 341.075, 800.145 338.825, 800.933 338 C 802.779 336.068, 815 317.441, 815 316.559 C 815 316.191, 815.963 313.777, 817.140 311.195 C 823.438 297.379, 823.367 258.522, 817.001 235 C 816.480 233.075, 815.111 227.450, 813.958 222.500 C 810.842 209.123, 807.864 200, 806.611 199.998 C 805.846 199.996, 805.607 203.191, 805.843 210.248 M 177.379 348.192 C 177.725 349.672, 180.021 360.472, 182.479 372.192 C 193.996 427.081, 207.164 473.163, 222.432 512 C 228.692 527.925, 242.417 556.524, 249.066 567.500 C 260.230 585.930, 275.247 602.587, 286.030 608.500 C 290.951 611.199, 292.352 611.492, 300 611.416 C 310.012 611.316, 316.976 609.231, 330.500 602.283 C 350.683 591.915, 371.987 576.122, 389.500 558.546 C 403.078 544.920, 408.802 536.892, 409.697 530.220 C 410.176 526.651, 409.900 526.063, 406.382 523.163 C 404.271 521.423, 402.211 520, 401.803 520 C 399.983 520, 353.571 490.880, 332 476.205 C 275.983 438.094, 227.281 398.023, 190.444 359.734 C 180.239 349.128, 176.909 346.186, 177.379 348.192 M 818.524 348.975 C 816.968 350.600, 815.243 351.650, 814.692 351.310 C 814.109 350.949, 814.004 351.198, 814.442 351.906 C 815.794 354.094, 780.251 388.626, 752.974 411.625 C 714.093 444.407, 666.018 478.530, 616 508.845 C 588.133 525.735, 588.646 525.324, 589.303 530.224 C 590.161 536.623, 595.816 544.662, 608.500 557.518 C 627.310 576.583, 647.075 591.249, 668.500 602.041 C 683.411 609.551, 689.724 611.475, 699.500 611.489 C 706.518 611.499, 708.171 611.132, 712.970 608.500 C 727.205 600.694, 744.643 578.978, 759.142 551 C 782.472 505.983, 802.378 442.557, 819.535 358.570 C 820.876 352.008, 821.833 346.500, 821.663 346.330 C 821.493 346.160, 820.081 347.350, 818.524 348.975 M 421.023 517.876 C 424.136 520.594, 424.342 521.194, 424.785 528.841 C 425.356 538.711, 423.457 545.385, 418.280 551.703 C 416.321 554.094, 414.974 556.307, 415.287 556.620 C 416.307 557.641, 426.337 541.755, 429.104 534.736 C 432.479 526.174, 431.394 522.851, 423.518 517.637 C 418.250 514.148, 416.902 514.278, 421.023 517.876 M 574.746 518.250 C 568.300 522.733, 567.290 524.883, 568.853 530.798 C 570.201 535.902, 575.125 545.999, 578.217 550 C 579.280 551.375, 581.241 554.050, 582.575 555.944 C 583.909 557.839, 585 558.892, 585 558.284 C 585 557.677, 583.239 554.952, 581.087 552.229 C 575.600 545.288, 573.820 539.398, 574.138 529.241 C 574.392 521.108, 574.479 520.845, 577.860 517.957 C 582.479 514.012, 580.584 514.190, 574.746 518.250 M 490.376 592.533 C 488.657 593.287, 487.055 594.488, 486.816 595.202 C 486.221 596.975, 487.593 746.787, 488.879 820.500 C 489.455 853.500, 490.174 899.400, 490.478 922.500 C 491.186 976.343, 491.789 989.612, 493.715 993.750 L 495.228 997 502.864 996.989 C 510.563 996.978, 514.927 996.004, 525 992.048 C 535.021 988.113, 536.075 987.516, 536.561 985.500 C 537.055 983.452, 539.003 961.495, 541.530 929.500 C 542.312 919.600, 543.410 905.875, 543.971 899 C 545.376 881.793, 550.833 791.154, 550.971 782.750 C 551.008 780.507, 553.059 780.536, 558.305 782.853 C 560.612 783.872, 563.288 784.982, 564.250 785.321 C 565.237 785.669, 565.990 786.932, 565.976 788.219 C 565.925 793.193, 561.722 841.538, 559.606 861.500 C 558.790 869.200, 557.376 882.700, 556.464 891.500 C 553.998 915.294, 553.019 923.103, 546.003 975 C 545.594 978.025, 545.615 980.892, 546.051 981.372 C 547.112 982.539, 556.704 977.746, 572.500 968.156 L 585.500 960.264 589.354 948.382 C 591.474 941.847, 593.601 935.600, 594.081 934.500 C 594.560 933.400, 595.900 929.125, 597.058 925 C 598.215 920.875, 599.829 915.250, 600.643 912.500 C 602.402 906.562, 606.632 890.728, 608.525 883 C 609.266 879.975, 610.355 875.700, 610.944 873.500 C 611.534 871.300, 612.684 866.350, 613.501 862.500 C 614.317 858.650, 616.132 850.325, 617.534 844 C 618.936 837.675, 620.700 829.125, 621.453 825 C 622.207 820.875, 623.714 812.775, 624.802 807 C 625.890 801.225, 627.540 791.775, 628.468 786 C 629.396 780.225, 630.795 771.900, 631.577 767.500 C 632.858 760.287, 635.773 738.910, 637.975 720.579 C 638.945 712.500, 638.850 712.134, 635.094 709.500 C 632.408 707.616, 608.417 686.697, 599.348 678.330 C 597.065 676.224, 590.938 670.563, 585.732 665.750 C 580.527 660.938, 575.817 657, 575.265 657 C 573.733 657, 573.025 663.240, 572.995 677 C 572.980 683.875, 572.559 694.675, 572.058 701 C 571.557 707.325, 570.835 719.135, 570.453 727.244 L 569.759 741.987 561.629 737.712 L 553.500 733.437 553.766 728.468 C 554.533 714.158, 555.914 639.939, 555.436 638.695 C 555.130 637.896, 547.594 630.479, 538.690 622.212 C 529.785 613.945, 520.025 604.819, 517 601.932 C 505.939 591.377, 498.778 588.849, 490.376 592.533 M 292.280 627.736 C 294.909 627.943, 298.959 627.940, 301.280 627.731 C 303.601 627.521, 301.450 627.352, 296.500 627.355 C 291.550 627.358, 289.651 627.530, 292.280 627.736 M 698.280 627.736 C 700.909 627.943, 704.959 627.940, 707.280 627.731 C 709.601 627.521, 707.450 627.352, 702.500 627.355 C 697.550 627.358, 695.651 627.530, 698.280 627.736 M 455.433 631.035 C 442.044 638.078, 433.745 644.726, 410.500 667.027 C 405 672.304, 398.025 678.888, 395 681.659 C 391.975 684.429, 387.475 688.595, 385 690.915 C 374.206 701.036, 350.805 720.486, 343 725.824 C 332.299 733.143, 329.607 736.813, 330.402 743 C 331.215 749.322, 335.200 766.296, 342.140 793 C 344.356 801.525, 346.751 810.804, 347.464 813.620 C 348.176 816.437, 349.231 820.262, 349.808 822.120 C 350.384 823.979, 352.054 829.550, 353.519 834.500 C 357.316 847.332, 365.220 871.560, 369.996 885 C 381.128 916.334, 398.291 942.038, 420.500 960.634 C 442.849 979.348, 457.721 981.906, 469.348 969.036 C 473.860 964.042, 477.443 956.443, 480.120 946.192 C 482.893 935.570, 483.419 915.684, 482.107 871 C 481.518 850.925, 480.563 807.500, 479.984 774.500 C 477.555 635.877, 477.617 637.843, 475.563 634 C 472.969 629.146, 471.216 628.069, 465.852 628.032 C 462.564 628.009, 459.514 628.888, 455.433 631.035 M 197.642 639.770 C 196.486 641.640, 212.887 690.859, 219.545 705.500 C 220.295 707.150, 221.801 710.806, 222.891 713.625 C 227.024 724.314, 238.163 748.199, 247.084 765.500 C 254.763 780.393, 255.578 781.906, 259.799 789.112 C 261.284 791.649, 264.924 797.949, 267.888 803.112 C 289.758 841.221, 326.026 887.630, 353.078 912.126 C 366.774 924.528, 371.931 927.198, 375.013 923.484 C 377.578 920.393, 374.897 909.065, 367.870 893.305 C 366.842 890.998, 366 888.873, 366 888.584 C 366 888.296, 364.936 885.683, 363.635 882.780 C 362.335 879.876, 360.049 874.125, 358.555 870 C 357.062 865.875, 355.442 861.600, 354.955 860.500 C 354.468 859.400, 353.127 855.800, 351.974 852.500 C 348.722 843.197, 343 826.581, 343 826.444 C 343 826.306, 338.939 825.055, 328.573 821.998 C 322.007 820.062, 311.452 815.207, 304.197 810.785 C 302.381 809.678, 300.624 809.043, 300.292 809.374 C 299.961 809.706, 300.967 813.019, 302.528 816.738 C 308.334 830.575, 329.280 872.223, 332.205 875.747 C 334.281 878.248, 331.838 876.927, 329.438 874.250 C 323.226 867.323, 301.413 827.563, 293.091 808 C 291.805 804.975, 289.926 800.700, 288.917 798.500 C 285.419 790.876, 273.841 761.448, 270.032 750.500 C 267.927 744.450, 265.867 738.663, 265.453 737.640 C 264.959 736.416, 266.570 737.225, 270.163 740.006 C 274.912 743.680, 275.920 745.099, 277.886 750.872 C 280.033 757.180, 280.435 757.672, 285.910 760.705 C 295.954 766.269, 306.628 769.520, 318.329 770.581 C 327.562 771.417, 327.286 772.304, 323.035 755.474 C 319.083 739.825, 318.856 739.603, 307.562 740.324 C 280.474 742.053, 265.080 731.637, 235.411 691.500 C 221.486 672.661, 220.838 671.743, 209.124 654.250 C 203.508 645.862, 198.734 639, 198.515 639 C 198.297 639, 197.904 639.346, 197.642 639.770 M 789.064 655.539 C 769.719 684.353, 760.259 697.200, 747.392 712.134 C 738.262 722.730, 731.375 728.958, 723 734.192 C 713.378 740.205, 708.781 741.465, 696.404 741.484 C 688.456 741.495, 684.836 741.892, 683.644 742.881 C 679.391 746.410, 665.323 771.590, 660.368 784.542 C 658.463 789.524, 636.962 841.225, 634.919 845.739 C 633.863 848.071, 633 850.184, 633 850.436 C 633 850.827, 617.507 888.726, 614.987 894.500 C 614.507 895.600, 612.963 899.101, 611.557 902.280 C 610.151 905.458, 609 908.334, 609 908.670 C 609 909.006, 608.118 911.130, 607.041 913.390 C 599.322 929.577, 588.175 956.575, 588.908 957.308 C 589.707 958.107, 609.965 944.148, 617.500 937.607 C 619.150 936.174, 620.823 935.002, 621.217 935.001 C 622.752 934.999, 649.216 892.772, 658.508 875.500 C 660.579 871.650, 663.965 865.350, 666.033 861.500 C 669.190 855.621, 670.889 853.742, 676.646 849.768 C 680.416 847.165, 683.815 845.027, 684.199 845.018 C 685.113 844.995, 673.367 867.859, 666.228 880 C 660.208 890.239, 653.186 900.791, 649.375 905.327 C 645.130 910.379, 647.203 911.990, 651.849 907.250 C 657.024 901.970, 679.629 876.440, 685.732 868.983 C 714.243 834.145, 747.084 779.931, 766.895 735 C 768.714 730.875, 771.085 725.531, 772.165 723.125 C 773.244 720.719, 775.019 716.444, 776.109 713.625 C 777.199 710.806, 778.705 707.150, 779.455 705.500 C 784.507 694.392, 802 643.551, 802 639.979 C 802 637.095, 799.121 640.559, 789.064 655.539 M 407 689.731 C 404.117 690.832, 394.300 699.071, 393.019 701.465 C 392.143 703.101, 391.947 705.543, 392.410 709.036 C 392.787 711.872, 393.507 718.761, 394.011 724.346 C 394.515 729.931, 395.614 741.025, 396.454 749 C 397.293 756.975, 398.424 767.775, 398.966 773 C 399.509 778.225, 400.392 785.200, 400.928 788.500 C 401.465 791.800, 402.368 798.100, 402.936 802.500 C 404.787 816.853, 408.299 840.370, 410.327 852 C 411.143 856.675, 412.108 862.750, 412.473 865.500 C 412.837 868.250, 413.532 872.075, 414.017 874 C 414.502 875.925, 415.645 882, 416.557 887.500 C 417.469 893, 418.581 898.850, 419.027 900.500 C 419.473 902.150, 420.127 905.634, 420.479 908.243 C 421.214 913.679, 426.275 920, 429.893 920 C 433.473 920, 434.159 916.175, 432.547 905.216 C 431.761 899.872, 430.414 890.325, 429.553 884 C 428.693 877.675, 427.094 865.975, 425.999 858 C 424.240 845.184, 423.153 835.908, 420.021 807 C 418.058 788.881, 415.102 757.755, 414.560 749.500 C 414.235 744.550, 413.532 736.225, 412.997 731 C 412.462 725.775, 411.509 714.188, 410.879 705.250 C 410.250 696.313, 409.457 689.036, 409.118 689.079 C 408.778 689.122, 407.825 689.416, 407 689.731 M 707.110 774.752 C 704.145 781.763, 699.336 793.013, 696.423 799.750 C 693.510 806.487, 691.355 812, 691.633 812 C 691.912 812, 694.026 810.702, 696.332 809.115 C 699.331 807.052, 700.842 805.130, 701.636 802.365 C 702.247 800.239, 704.382 792.875, 706.379 786 C 709.745 774.415, 710.975 770.068, 712.532 764.250 C 713.778 759.597, 712.340 762.382, 707.110 774.752" stroke="none" fill="#6838d2" fill-rule="evenodd"/></svg>